<svg width="26" height="32" viewBox="0 0 26 32" fill="none" xmlns="http://www.w3.org/2000/svg">
<path d="M24.3424 4.23399C21.441 -0.0190902 15.7106 -1.27958 11.5677 1.42433L4.29186 6.17475C3.30985 6.80665 2.46723 7.64138 1.81779 8.62566C1.16834 9.60994 0.726346 10.7221 0.520012 11.8913C0.172082 13.8645 0.47642 15.9003 1.38486 17.6764C0.762252 18.644 0.337989 19.7312 0.137805 20.8719C-0.0700026 22.0669 -0.0425445 23.2923 0.218565 24.4762C0.479674 25.6602 0.969165 26.7787 1.65826 27.766C4.55969 32.0191 10.29 33.2796 14.4329 30.5757L21.7088 25.8453C22.6897 25.212 23.5314 24.3769 24.1807 23.3929C24.83 22.4088 25.2727 21.2973 25.4806 20.1287C25.8273 18.1561 25.522 16.1214 24.613 14.3465C25.2353 13.3784 25.6604 12.2915 25.8628 11.151C26.07 9.956 26.0422 8.73067 25.7812 7.54683C25.5201 6.363 25.0309 5.24448 24.3424 4.25686" fill="#FF3E00"/>
<path d="M10.8565 28.1775C9.71107 28.482 8.502 28.4192 7.39249 27.9976C6.28298 27.5759 5.32643 26.8157 4.65193 25.8195C4.23779 25.2259 3.94374 24.5534 3.78707 23.8417C3.63039 23.1299 3.61428 22.3932 3.73966 21.675C3.78081 21.4414 3.83862 21.2111 3.91263 20.9861L4.04933 20.5574L4.42317 20.8432C5.28246 21.486 6.24177 21.975 7.26043 22.2895L7.53941 22.3724L7.5143 22.6582C7.48746 23.0501 7.59501 23.4393 7.81839 23.7587C8.02192 24.0583 8.31019 24.2869 8.64438 24.4137C8.97858 24.5404 9.34265 24.5592 9.68758 24.4675C9.8453 24.4241 9.99577 24.3566 10.134 24.2674L17.3987 19.517C17.5771 19.402 17.7301 19.25 17.8478 19.0708C17.9655 18.8917 18.0453 18.6893 18.0822 18.4766C18.1194 18.2599 18.1138 18.0377 18.0659 17.8232C18.018 17.6087 17.9287 17.4061 17.8032 17.2275C17.5997 16.9279 17.3114 16.6993 16.9772 16.5725C16.643 16.4458 16.2789 16.427 15.934 16.5187C15.7761 16.5616 15.6256 16.6291 15.4876 16.7188L12.6978 18.5338C12.2415 18.8302 11.7439 19.0538 11.222 19.1969C10.0784 19.4996 8.87181 19.4361 7.76452 19.015C6.65723 18.594 5.70241 17.8355 5.02856 16.8417C4.61567 16.2475 4.32278 15.5749 4.16708 14.8632C4.01138 14.1515 3.996 13.4151 4.12186 12.6972C4.24506 11.9926 4.51042 11.3221 4.90097 10.7285C5.29153 10.135 5.79868 9.63145 6.39 9.25016L13.677 4.49974C14.1306 4.20392 14.6254 3.98034 15.1445 3.83663C16.2895 3.5319 17.4983 3.59462 18.6074 4.01633C19.7165 4.43804 20.6725 5.19841 21.3463 6.19468C21.7609 6.78805 22.0555 7.46041 22.2126 8.17218C22.3698 8.88394 22.3863 9.62073 22.2614 10.3392C22.2178 10.5741 22.1601 10.8061 22.0884 11.0337L21.9489 11.4624L21.5778 11.1766C20.7168 10.529 19.7545 10.0361 18.7322 9.71891L18.4532 9.63602L18.4783 9.3502C18.5106 8.95636 18.4058 8.56354 18.1826 8.24119C17.9778 7.94667 17.6903 7.723 17.3584 7.59995C17.0265 7.4769 16.6659 7.4603 16.3246 7.55236C16.1667 7.59525 16.0161 7.66272 15.8782 7.75243L8.59954 12.4943C8.42177 12.6094 8.26924 12.761 8.15159 12.9396C8.03394 13.1182 7.95374 13.3199 7.91604 13.5318C7.87956 13.749 7.88544 13.9715 7.93332 14.1864C7.9812 14.4012 8.07015 14.6043 8.19502 14.7837C8.39761 15.0807 8.68355 15.3075 9.0149 15.4341C9.34625 15.5607 9.70734 15.5811 10.0503 15.4926C10.2078 15.4486 10.3582 15.3811 10.4966 15.2925L13.2865 13.4804C13.7424 13.1807 14.2413 12.956 14.7651 12.8144C15.9098 12.509 17.1185 12.571 18.2277 12.9923C19.3368 13.4135 20.293 14.1735 20.9669 15.1696C21.3812 15.7631 21.6756 16.4355 21.8327 17.1472C21.9899 17.8589 22.0066 18.5956 21.8819 19.3141C21.7587 20.0187 21.4934 20.6892 21.1028 21.2828C20.7123 21.8763 20.2051 22.3798 19.6138 22.7611L12.3351 27.5115C11.878 27.8089 11.3794 28.0335 10.8565 28.1775Z" fill="white"/>
</svg>
